<?xml version="1.0" encoding="utf-8"?>
<!-- Generator: Adobe Illustrator 19.2.0, SVG Export Plug-In . SVG Version: 6.00 Build 0)  -->
<!DOCTYPE svg PUBLIC "-//W3C//DTD SVG 1.1//EN" "http://www.w3.org/Graphics/SVG/1.1/DTD/svg11.dtd">
<svg version="1.1" id="Layer_1" xmlns="http://www.w3.org/2000/svg" xmlns:xlink="http://www.w3.org/1999/xlink" x="0px" y="0px"
	 viewBox="0 0 612 792" style="enable-background:new 0 0 612 792;" xml:space="preserve">
<path d="M88.6,15.1c-4.2,0-7.5,3.3-7.5,7.5c0,2.9,1.2,4.3,3.7,7.9c3.1,4.5,3.7,8.3,3.7,8.3c0.1,0.3,0.4,0.3,0.4,0
	c0,0,0.5-3.8,3.6-8.3c1.5-2.1,3.7-5,3.7-7.9C96.2,18.5,92.8,15.1,88.6,15.1z M91.6,21.8v5.1h-1.5V23h-2v3.9h-2.4v-5.1h-1.5l4.4-3.6
	l4.4,3.6H91.6z"/>
</svg>
